<svg width="273" height="225" viewBox="0 0 273 225" fill="none" xmlns="http://www.w3.org/2000/svg">
<g clip-path="url(#clip0)">
<rect width="273" height="225" fill="black"/>
<path d="M204.445 -116.666L246.063 -47.6237L261.036 -22.7967L244.509 -13.0364L204.464 10.6345L164.437 -13.0364L147.93 -22.7967L162.883 -47.6237L204.445 -116.666ZM204.445 -124L159.605 -49.5758L142.681 -21.47L162.485 -9.75775L204.445 15.0503L246.424 -9.75775L266.247 -21.47L249.304 -49.5758L204.445 -124Z" fill="#2E2E2E"/>
<path d="M262.855 -4.20476L204.464 32.581" stroke="#002E2E" stroke-width="1.89519" stroke-miterlimit="10"/>
<path d="M147.893 -4.20476L204.748 32.6378V98.2494" stroke="#002E2E" stroke-width="1.89519" stroke-miterlimit="10"/>
<path d="M67.9909 -116.666L109.609 -47.6237L124.581 -22.7967L108.055 -13.0364L67.9909 10.6535L27.9644 -13.0175L11.4383 -22.7967L26.3914 -47.6237L67.9909 -116.666ZM67.9909 -124L23.1506 -49.5758L6.22656 -21.47L26.0313 -9.75775L67.9909 15.0503L109.969 -9.75775L129.793 -21.47L112.85 -49.5758L67.9909 -124Z" fill="#2E2E2E"/>
<path d="M126.401 -4.20476L68.0098 32.581" stroke="#002E2E" stroke-width="1.89519" stroke-miterlimit="10"/>
<path d="M11.4385 -4.20476L68.2943 32.6378V98.2494" stroke="#002E2E" stroke-width="1.89519" stroke-miterlimit="10"/>
<path d="M204.749 92.7344L163.13 23.6925L148.158 -1.13458L164.684 -10.8948L204.73 -34.5658L244.756 -10.8948L261.263 -1.13458L246.31 23.6925L204.749 92.7344ZM204.749 100.088L249.589 25.6635L266.513 -2.44226L246.708 -14.1546L204.749 -38.9626L162.77 -14.1546L142.946 -2.44226L159.889 25.6635L204.749 100.088Z" fill="#2E2E2E"/>
<path d="M272.673 8.41718L314.291 77.4591L329.263 102.286L312.737 112.046L272.692 135.717L232.665 112.046L216.158 102.286L231.111 77.4591L272.673 8.41718ZM272.673 1.08278L227.832 75.507L210.908 103.613L230.713 115.325L272.673 140.133L314.651 115.325L334.475 103.613L317.532 75.507L272.673 1.08278Z" fill="#2E2E2E"/>
<path d="M331.082 120.878L272.691 157.664" stroke="#002E2E" stroke-width="1.89519" stroke-miterlimit="10"/>
<path d="M216.12 120.878L272.976 157.72V223.332" stroke="#002E2E" stroke-width="1.89519" stroke-miterlimit="10"/>
<path d="M68.2945 92.7344L26.676 23.6925L11.704 -1.13458L28.2301 -10.8948L68.2755 -34.5658L108.302 -10.8948L124.809 -1.13458L109.856 23.6925L68.2945 92.7344ZM68.2945 100.088L113.135 25.6635L130.059 -2.44226L110.254 -14.1546L68.2945 -38.9626L26.3159 -14.1546L6.49219 -2.44226L23.4352 25.6635L68.2945 100.088Z" fill="#2E2E2E"/>
<path d="M136.218 8.41718L177.837 77.4591L192.809 102.286L176.283 112.046L136.237 135.717L96.2109 112.046L79.7038 102.286L94.6569 77.4591L136.218 8.41718ZM136.218 1.08278L91.3782 75.507L74.4541 103.613L94.2589 115.325L136.218 140.133L178.197 115.325L198.021 103.613L181.078 75.507L136.218 1.08278Z" fill="#2E2E2E"/>
<path d="M194.628 120.878L136.237 157.664" stroke="#002E2E" stroke-width="1.89519" stroke-miterlimit="10"/>
<path d="M79.666 120.878L136.522 157.72V223.332" stroke="#002E2E" stroke-width="1.89519" stroke-miterlimit="10"/>
<path d="M-0.235632 8.41717L41.3828 77.4591L56.3549 102.286L39.8288 112.046L-0.216679 135.717L-40.2432 112.046L-56.7882 102.286L-41.8351 77.4591L-0.235632 8.41717ZM-0.235632 1.08276L-45.0759 75.507L-62 103.613L-42.1952 115.325L-0.235632 140.133L41.7429 115.325L61.5666 103.613L44.6236 75.507L-0.235632 1.08276Z" fill="#2E2E2E"/>
<path d="M58.1741 120.878L-0.216797 157.664" stroke="#002E2E" stroke-width="1.89519" stroke-miterlimit="10"/>
<path d="M-56.7881 120.878L0.0677312 157.72V223.332" stroke="#002E2E" stroke-width="1.89519" stroke-miterlimit="10"/>
<path d="M272.975 217.817L231.357 148.775L216.385 123.948L232.911 114.188L272.956 90.5169L312.983 114.188L329.49 123.948L314.537 148.775L272.975 217.817ZM272.975 225.17L317.815 150.746L334.739 122.64L314.935 110.928L272.975 86.12L230.997 110.928L211.173 122.64L228.116 150.746L272.975 225.17Z" fill="#2E2E2E"/>
<path d="M272.729 5.89645V65.2729" stroke="#002E2E" stroke-width="1.89519" stroke-miterlimit="10"/>
<path d="M211.646 103.84L272.71 65.3675" stroke="#002E2E" stroke-width="1.89519" stroke-miterlimit="10"/>
<path d="M332.428 103.84L272.71 65.1402" stroke="#002E2E" stroke-width="1.89519" stroke-miterlimit="10"/>
<path d="M136.521 217.817L94.9026 148.776L79.9305 123.949L96.4566 114.188L136.502 90.5173L176.529 114.188L193.036 123.949L178.083 148.776L136.521 217.817ZM136.521 225.171L181.361 150.747L198.285 122.641L178.481 110.929L136.521 86.1205L94.5425 110.929L74.7188 122.641L91.6618 150.747L136.521 225.171Z" fill="#2E2E2E"/>
<path d="M136.274 5.89688V65.2733" stroke="#002E2E" stroke-width="1.89519" stroke-miterlimit="10"/>
<path d="M75.1924 103.84L136.256 65.368" stroke="#002E2E" stroke-width="1.89519" stroke-miterlimit="10"/>
<path d="M195.973 103.841L136.256 65.1407" stroke="#002E2E" stroke-width="1.89519" stroke-miterlimit="10"/>
<path d="M204.445 133.5L246.063 202.542L261.036 227.369L244.509 237.129L204.464 260.8L164.437 237.129L147.93 227.369L162.883 202.542L204.445 133.5ZM204.445 126.166L159.605 200.59L142.681 228.696L162.485 240.408L204.445 265.216L246.424 240.408L266.247 228.696L249.304 200.59L204.445 126.166Z" fill="#2E2E2E"/>
<path d="M0.0678994 217.817L-41.5506 148.775L-56.5226 123.948L-39.9965 114.188L0.0489463 90.5169L40.0754 114.188L56.5826 123.948L41.6295 148.775L0.0678994 217.817ZM0.0678994 225.17L44.9082 150.746L61.8323 122.64L42.0275 110.928L0.0678994 86.12L-41.9106 110.928L-61.7344 122.64L-44.7913 150.746L0.0678994 225.17Z" fill="#2E2E2E"/>
<path d="M-0.178711 5.89645V65.2729" stroke="#002E2E" stroke-width="1.89519" stroke-miterlimit="10"/>
<path d="M-61.2607 103.84L-0.197597 65.3675" stroke="#002E2E" stroke-width="1.89519" stroke-miterlimit="10"/>
<path d="M59.5203 103.84L-0.197266 65.1402" stroke="#002E2E" stroke-width="1.89519" stroke-miterlimit="10"/>
<path d="M67.9919 133.5L109.61 202.542L124.582 227.369L108.056 237.129L68.0109 260.8L27.9844 237.129L11.4772 227.369L26.4303 202.542L67.9919 133.5ZM67.9919 126.165L23.1516 200.59L6.22754 228.695L26.0323 240.408L67.9919 265.216L109.97 240.408L129.794 228.695L112.851 200.59L67.9919 126.165Z" fill="#2E2E2E"/>
<path d="M204.749 342.9L163.13 273.858L148.158 249.031L164.684 239.27L204.73 215.599L244.756 239.27L261.263 249.031L246.31 273.858L204.749 342.9ZM204.749 350.253L249.589 275.829L266.513 247.723L246.708 236.011L204.749 211.203L162.77 236.011L142.946 247.723L159.889 275.829L204.749 350.253Z" fill="#2E2E2E"/>
<path d="M204.502 130.979V190.355" stroke="#002E2E" stroke-width="1.89519" stroke-miterlimit="10"/>
<path d="M143.42 228.923L204.483 190.45" stroke="#002E2E" stroke-width="1.89519" stroke-miterlimit="10"/>
<path d="M264.201 228.923L204.483 190.223" stroke="#002E2E" stroke-width="1.89519" stroke-miterlimit="10"/>
<path d="M68.2945 342.9L26.676 273.858L11.704 249.031L28.2301 239.27L68.2755 215.599L108.302 239.27L124.809 249.031L109.856 273.858L68.2945 342.9ZM68.2945 350.253L113.135 275.829L130.059 247.723L110.254 236.011L68.2945 211.203L26.3159 236.011L6.49219 247.723L23.4352 275.829L68.2945 350.253Z" fill="#2E2E2E"/>
<path d="M68.0479 130.979V190.355" stroke="#002E2E" stroke-width="1.89519" stroke-miterlimit="10"/>
<path d="M6.96582 228.923L68.029 190.45" stroke="#002E2E" stroke-width="1.89519" stroke-miterlimit="10"/>
<path d="M127.747 228.923L68.0293 190.223" stroke="#002E2E" stroke-width="1.89519" stroke-miterlimit="10"/>
</g>
<defs>
<clipPath id="clip0">
<rect width="273" height="225" fill="white"/>
</clipPath>
</defs>
</svg>
