<svg width="62" height="65" viewBox="0 0 62 65" fill="none" xmlns="http://www.w3.org/2000/svg">
<path d="M56.6552 0H5.34483C2.35172 0 0 2.35172 0 5.34483V17.1034C0 19.7759 1.28276 22.2345 3.2069 23.731V58.7931C3.2069 61.7862 5.55862 64.1379 8.55172 64.1379H53.4483C56.4414 64.1379 58.7931 61.7862 58.7931 58.7931V23.731C60.7172 22.1276 62 19.7759 62 17.1034V5.34483C62 2.35172 59.6483 0 56.6552 0ZM59.8621 5.34483V14.9655H47.0345V2.13793H56.6552C58.4724 2.13793 59.8621 3.52759 59.8621 5.34483ZM33.1379 57.7241V53.4483H39.5517V57.7241H33.1379ZM5.34483 40.6207H9.62069V44.8966H5.34483V40.6207ZM39.5517 51.3103H37.4138V47.0345H39.5517V51.3103ZM26.7241 51.3103V47.0345H35.2759V51.3103H26.7241ZM16.0345 51.3103V47.0345H24.5862V51.3103H16.0345ZM39.5517 44.8966H33.1379V40.6207H39.5517V44.8966ZM31 44.8966H22.4483V40.6207H31V44.8966ZM20.3103 44.8966H11.7586V40.6207H20.3103V44.8966ZM5.34483 47.0345H13.8966V51.3103H5.34483V47.0345ZM5.34483 53.4483H9.62069V57.7241H5.34483V53.4483ZM11.7586 53.4483H20.3103V57.7241H11.7586V53.4483ZM22.4483 53.4483H31V57.7241H22.4483V53.4483ZM38.4828 23.5172C34.9552 23.5172 32.069 20.631 32.069 17.1034H44.8966C44.8966 20.631 42.0103 23.5172 38.4828 23.5172ZM29.931 14.9655H17.1034V2.13793H29.931V14.9655ZM32.069 2.13793H44.8966V14.9655H32.069V2.13793ZM29.931 17.1034C29.931 20.631 27.0448 23.5172 23.5172 23.5172C19.9897 23.5172 17.1034 20.631 17.1034 17.1034H29.931ZM2.13793 5.34483C2.13793 3.52759 3.52759 2.13793 5.34483 2.13793H14.9655V14.9655H2.13793V5.34483ZM2.13793 17.1034H14.9655C14.9655 20.631 12.0793 23.5172 8.55172 23.5172C5.02414 23.5172 2.13793 20.631 2.13793 17.1034ZM8.55172 25.6552C11.7586 25.6552 14.5379 23.8379 16.0345 21.2724C17.531 23.9448 20.3103 25.6552 23.5172 25.6552C26.7241 25.6552 29.5034 23.8379 31 21.2724C32.4966 23.9448 35.2759 25.6552 38.4828 25.6552C38.8034 25.6552 39.231 25.6552 39.5517 25.5483V38.4828H5.34483V25.0138C6.3069 25.4414 7.37586 25.6552 8.55172 25.6552ZM53.4483 62H8.55172C7.16207 62 5.98621 61.1448 5.55862 59.8621H56.4414C56.0138 61.1448 54.8379 62 53.4483 62ZM56.6552 57.7241H41.6897V25.0138C43.5069 24.2655 45.0034 22.8759 45.9655 21.2724C47.4621 23.9448 50.2414 25.6552 53.4483 25.6552C54.6241 25.6552 55.6931 25.4414 56.6552 25.0138V57.7241ZM53.4483 23.5172C49.9207 23.5172 47.0345 20.631 47.0345 17.1034H59.8621C59.8621 20.631 56.9759 23.5172 53.4483 23.5172Z" fill="black"/>
</svg>
