<svg width="63" height="64" viewBox="0 0 63 64" fill="none" xmlns="http://www.w3.org/2000/svg">
<path d="M58.4 52.1L62.9 51.2V51.1L58.3 50.6L58.6 49.8L53.6 49.3L54.4 48.7L49.2 48.6L49.5 47.4L43.9 48.7L44.2 47.6L41.4 48.7L41.1 48.3L47 45.6L45.7 44.8L51.9 41.2L50.6 40.3L55.2 35.7L53.9 35.8L57.9 31L56.9 30.5L60.6 26H60.4L55.6 29.1L55.2 28L50 31.4L50.2 30.1L45.1 34.1L44.4 32.7L40.1 38.5L39.6 37L36.2 42.6L36 42.4L37.7 38.5H36.4L38.9 30.3L37 31L38.9 21.7L36.9 22.3L36.4 13.8L35.4 15.1L34.2 6.9L32.8 7.5L31.5 0H31.3L30.1 7.5L28.7 6.9L27.5 15.1L26.5 13.8L26 22.3L24 21.7L25.9 31L24 30.3L26.5 38.5H25.2L26.9 42.4L26.7 42.6L23.2 37L22.6 38.4L18.4 32.7L17.7 34.1L12.6 30.1L12.8 31.4L7.6 28L7.2 29.1L2.4 26L2.3 26.1L6 30.6L5 31.1L9 35.9L7.7 35.8L12.3 40.4L11 41.3L17.2 44.9L15.9 45.7L21.8 48.4L21.4 48.7L18.7 47.8L19 48.9L13.4 47.5L13.7 48.7L8.5 48.8L9.3 49.4L4.3 49.9L4.6 50.7L0 51.2V51.3L4.4 52.1L4 52.9L8.9 53.8L8 54.4L13.1 54.9L12.8 56L18.5 55.2L18 56.3L23.1 55.1L23 55.8L27.2 54.3L27.3 54.5L24.7 55.6L25.4 56L22.7 57.5L23.2 57.9L21.2 59.8H21.7L19.9 61.8L20.3 62L18.6 63.9V64L20.7 62.7L20.8 63.2L23.1 61.8L23 62.3L25.3 60.6L25.5 61.2L27.5 58.8L27.7 59.4L29.3 57L29.6 57.3L31.1 54.4L30.6 64H31.4H32.2L31.7 54.4L33.3 57.3L33.6 57L35.2 59.4L35.4 58.8L37.4 61.2L37.6 60.6L39.9 62.3L39.8 61.8L42.1 63.2L42.2 62.7L44.3 64V63.9L42.5 62L42.9 61.8L41.1 59.8H41.6L39.6 57.9L40.1 57.5L37.4 56L37.9 55.7L35.4 54.5L35.5 54.3L39.7 55.8L39.6 55.1L44.7 56.3L44.2 55.2L49.9 56L49.5 54.9L54.6 54.4L53.7 53.8L58.6 52.9L58.4 52.1Z" fill="black"/>
</svg>
