<svg width="74" height="64" viewBox="0 0 74 64" fill="none" xmlns="http://www.w3.org/2000/svg">
<path d="M73.9376 62.468H0V63.9996H73.9376V62.468Z" fill="black"/>
<path d="M15.787 31.3293C8.04474 31.3293 1.74219 37.6243 1.74219 45.3666C1.74219 53.1089 8.04474 59.4039 15.787 59.4039C23.5217 59.4039 29.8242 53.1089 29.8242 45.3666C29.8242 37.6243 23.5217 31.3293 15.787 31.3293ZM15.787 52.0367C12.1035 52.0367 9.11691 49.0424 9.11691 45.3666C9.11691 41.6907 12.1035 38.6964 15.787 38.6964C19.4629 38.6964 22.4495 41.6907 22.4495 45.3666C22.4495 49.0424 19.4629 52.0367 15.787 52.0367Z" fill="black"/>
<path d="M63.2788 11.5019L60.499 9.17383V21.955L63.2788 22.4758V11.5019Z" fill="black"/>
<path d="M55.5475 37.1875C49.4287 37.1875 44.4434 42.1729 44.4434 48.2994C44.4434 54.4258 49.4287 59.4035 55.5475 59.4035C61.674 59.4035 66.6593 54.4258 66.6593 48.2994C66.6593 42.1729 61.674 37.1875 55.5475 37.1875ZM55.5475 53.7977C52.5149 53.7977 50.049 51.3318 50.049 48.2993C50.049 45.2667 52.5149 42.8008 55.5475 42.8008C58.5801 42.8008 61.046 45.2667 61.046 48.2993C61.046 51.3319 58.5801 53.7977 55.5475 53.7977Z" fill="black"/>
<path d="M67.7164 26.8949V43.1683H67.0884C65.1204 38.7496 60.694 35.6558 55.5478 35.6558C50.4092 35.6558 45.9829 38.7496 44.0071 43.1683H40.7754V19.7654L65.7407 24.5056C66.8894 24.7201 67.7164 25.7233 67.7164 26.8949Z" fill="black"/>
<path d="M71.3511 38.6037L69.2451 37.3325V43.1679H72.1552C72.1169 40.8016 72.5993 39.3542 71.3511 38.6037Z" fill="black"/>
<path d="M57.3687 18.0912L47.4521 16.2275L47.1692 17.733L57.0858 19.5966L57.3687 18.0912Z" fill="black"/>
<path d="M45.5719 15.874L43.0049 15.3916L42.722 16.897L45.289 17.3795L45.5719 15.874Z" fill="black"/>
<path d="M41.0638 46.9026H39.3232V48.4342H41.0638V46.9026Z" fill="black"/>
<path d="M38.1952 46.9026H34.502V48.4342H38.1952V46.9026Z" fill="black"/>
<path d="M5.28259 6.71436H3.75098V18.8438H5.28259V6.71436Z" fill="black"/>
<path d="M5.28259 1.94824H3.75098V4.06616H5.28259V1.94824Z" fill="black"/>
<path d="M34.3572 3.16272L34.3267 3.08619C33.5532 1.20998 31.7459 0 29.7089 0H9.02441V19.6123H39.1895L34.3572 3.16272ZM33.9897 10.3537L28.4452 12.2606L28.9507 13.7157L31.1256 12.9651L32.7185 18.0807H22.158V14.2288L25.696 14.4815L25.8032 12.9499L19.8376 12.5363L18.352 7.49727L16.8815 7.93374L18.6659 13.9836L20.6263 14.1215V18.0807H15.4342V1.53161H29.7088C31.1102 1.53161 32.3508 2.35106 32.9022 3.63757L37.1448 18.0807H34.3267L32.573 12.4674L34.4875 11.8012L33.9897 10.3537Z" fill="black"/>
<path d="M39.2437 21.144V43.1763H31.1797C30.1076 35.6254 23.6213 29.7977 15.787 29.7977C9.59169 29.7977 4.25402 33.4352 1.74219 38.6733V30.7319C1.74219 29.2615 2.47732 27.8984 3.70264 27.0867L9.0403 23.5487V21.1441H39.2437V21.144Z" fill="black"/>
</svg>
