<svg width="62" height="63" viewBox="0 0 62 63" fill="none" xmlns="http://www.w3.org/2000/svg">
<path d="M62 18.259V12.785L50.357 3.259H35.262L31 0L26.738 3.259H11.643L0 12.785V18.259H2V48.259H0V62.259H62V48.259H60V18.259H62ZM49 16.259V14.259H60V16.259H49ZM49.643 5.259L53.31 8.259H47V10.259H55.754L58.199 12.259H47.031L37.877 5.259H49.643ZM47 14.753V20.259H41V15.77L31 7.992L21 15.769V20.259H15V14.753L31 2.518L47 14.753ZM41 48.259V46.259H47V48.259H41ZM2 16.259V14.259H13V16.259H2ZM23 26.259V21.259V20.259V16.748L31 10.525L39 16.748V20.259V21.259V26.259H41V44.259H39V48.259H37V34.259H25V48.259H23V44.259H21V26.259H23ZM35 48.259H27V36.259H35V48.259ZM21 24.259H15V22.259H21V24.259ZM19 26.259V44.259H17V26.259H19ZM21 46.259V48.259H15V46.259H21ZM41 56.259H21V54.259H41V56.259ZM21 58.259H41V60.259H21V58.259ZM41 52.259H21V50.259H41V52.259ZM43 44.259V26.259H45V44.259H43ZM41 24.259V22.259H47V24.259H41ZM12.357 5.259H24.123L14.969 12.259H3.801L6.246 10.259H15V8.259H8.69L12.357 5.259ZM4 18.259H13V20.259V21.259V26.259H15V44.259H13V48.259H4V18.259ZM2 50.259H19V60.259H2V50.259ZM60 60.259H43V50.259H60V60.259ZM58 48.259H49V44.259H47V26.259H49V21.259V20.259V18.259H58V48.259Z" fill="black"/>
<path d="M37 17.259H25V29.259H37V17.259ZM35 22.259H32V19.259H35V22.259ZM30 19.259V22.259H27V19.259H30ZM27 24.259H30V27.259H27V24.259ZM32 27.259V24.259H35V27.259H32Z" fill="black"/>
<path d="M49 40.259H56V28.259H49V40.259ZM51 30.259H54V38.259H51V30.259Z" fill="black"/>
<path d="M13 28.259H6V40.259H13V28.259ZM11 38.259H8V30.259H11V38.259Z" fill="black"/>
</svg>
