<svg width="62" height="62" viewBox="0 0 62 62" fill="none" xmlns="http://www.w3.org/2000/svg">
<path d="M57 26H45V24H61V0H33V20H28V0H0V24H17V26H5C2.243 26 0 28.243 0 31V57C0 59.757 2.243 62 5 62H57C59.757 62 62 59.757 62 57V31C62 28.243 59.757 26 57 26ZM45 46V32H48V56H14V32H17V46H45ZM19 44V22H43V44H19ZM35 2H59V22H45V20H35V2ZM2 22V2H26V20H17V22H2ZM17 30H12V58H50V30H45V28H52V60H10V28H17V30ZM2 57V31C2 29.346 3.346 28 5 28H8V60H5C3.346 60 2 58.654 2 57ZM60 57C60 58.654 58.654 60 57 60H54V28H57C58.654 28 60 29.346 60 31V57Z" fill="black"/>
<path d="M58 41H56V47H58V41Z" fill="black"/>
<path d="M6 40H4V48H6V40Z" fill="black"/>
<path d="M6 50H4V52H6V50Z" fill="black"/>
<path d="M6 36H4V38H6V36Z" fill="black"/>
<path d="M31 24C26.589 24 23 27.589 23 32V42H25.303L28 40.202L31 42.202L34 40.202L36.697 42H39V32C39 27.589 35.411 24 31 24ZM37 39.798L34 37.798L31 39.798L28 37.798L25 39.798V32C25 28.691 27.691 26 31 26C34.309 26 37 28.691 37 32V39.798Z" fill="black"/>
<path d="M55.4846 11.9999L46.9996 3.51489L38.5146 11.9999L46.9996 20.4849L55.4846 11.9999ZM46.9996 6.34289L52.6567 11.9999L46.9996 17.6569L41.3426 11.9999L46.9996 6.34289Z" fill="black"/>
<path d="M48 15V13H50V11H48V9H46V11H44V13H46V15H48Z" fill="black"/>
<path d="M20.0769 12L17.6769 6H10.3229L7.92285 12L10.3229 18H17.6769L20.0769 12ZM11.6769 16L10.0769 12L11.6769 8H16.3229L17.9229 12L16.3229 16H11.6769Z" fill="black"/>
<path d="M35 31H33V33H35V31Z" fill="black"/>
<path d="M29 31H27V33H29V31Z" fill="black"/>
</svg>
