<svg width="324" height="115" viewBox="0 0 324 115" fill="none" xmlns="http://www.w3.org/2000/svg">
<path fill-rule="evenodd" clip-rule="evenodd" d="M0 0V115H116V0H0ZM38.6667 16.9118H61.0526V54.0327L38.6667 76.4412V16.9118ZM16.2807 98.7647H99.7161H99.7193V76.4412H38.8251L16.2807 98.7647Z" fill="black"/>
<path d="M139.68 21.5469V21.4059C139.68 17.6339 142.264 15 145.74 15C148.603 15 150.82 16.4399 151.102 19.3887H148.744C148.482 17.7224 147.557 16.8598 145.757 16.8598C143.556 16.8598 142.126 18.5785 142.126 21.3895V21.5305C142.126 24.3579 143.471 26.0241 145.776 26.0241C147.504 26.0241 148.728 25.1451 148.973 23.3739H151.243C150.875 26.3915 148.747 27.92 145.776 27.92C141.864 27.9167 139.68 25.4075 139.68 21.5469Z" fill="black"/>
<path fill-rule="evenodd" clip-rule="evenodd" d="M153.963 21.3992V21.5405C153.963 25.1606 156.386 27.92 160.102 27.92C163.78 27.92 166.206 25.1606 166.206 21.4879V21.3467C166.206 17.6543 163.713 15 160.102 15C156.507 15 153.963 17.7266 153.963 21.3992ZM163.862 21.3631V21.5043C163.862 24.2276 162.423 26.0377 160.134 26.0377C157.93 26.0377 156.319 24.2638 156.319 21.5208V21.3795C156.319 18.6727 157.727 16.8626 160.099 16.8626C162.471 16.8626 163.862 18.7778 163.862 21.3631Z" fill="black"/>
<path d="M169.61 15.68H172.4L177.685 24.5289V15.68H179.809V27.92H177.385L171.73 18.54V27.92H169.607V15.68H169.61Z" fill="black"/>
<path d="M183.89 24.5203H186.106C186.262 25.787 186.763 26.8431 188.859 26.8431C190.227 26.8431 191.195 26.0699 191.195 24.9053C191.195 23.7406 190.623 23.303 188.618 22.9674C185.658 22.5628 184.257 21.6481 184.257 19.2892C184.257 17.2296 185.986 15.68 188.566 15.68C191.231 15.68 192.823 16.9138 193.064 19.3254H190.955C190.731 18.006 189.986 17.4402 188.566 17.4402C187.162 17.4402 186.438 18.1278 186.438 19.0951C186.438 20.115 186.854 20.6249 188.998 20.9441C191.904 21.3487 193.412 22.1943 193.412 24.7111C193.412 26.8924 191.595 28.6 188.862 28.6C185.482 28.6066 184.062 26.899 183.89 24.5203Z" fill="black"/>
<path d="M197.496 15.68H205.357V17.4779H199.835V20.8338H204.267V22.5454H199.835V26.1221H205.654V27.92H197.493V15.68H197.496Z" fill="black"/>
<path d="M209.739 15.68H212.528L217.814 24.5289V15.68H219.938V27.92H217.514L211.859 18.54V27.92H209.735V15.68H209.739Z" fill="black"/>
<path d="M222.658 24.5203H224.875C225.031 25.787 225.531 26.8431 227.627 26.8431C228.995 26.8431 229.964 26.0699 229.964 24.9053C229.964 23.7406 229.392 23.303 227.387 22.9674C224.426 22.5628 223.025 21.6481 223.025 19.2892C223.025 17.2296 224.754 15.68 227.335 15.68C230 15.68 231.592 16.9138 231.833 19.3254H229.723C229.499 18.006 228.755 17.4402 227.335 17.4402C225.931 17.4402 225.206 18.1278 225.206 19.0951C225.206 20.115 225.622 20.6249 227.767 20.9441C230.672 21.3487 232.18 22.1943 232.18 24.7111C232.18 26.8924 230.364 28.6 227.63 28.6C224.251 28.6066 222.83 26.899 222.658 24.5203Z" fill="black"/>
<path d="M238.965 22.6144L234.901 15.68H237.422L240.182 20.7488L242.874 15.68H245.103L241.261 22.6304V27.92H238.962V22.6144H238.965Z" fill="black"/>
<path d="M246.463 24.5203H248.68C248.836 25.787 249.336 26.8431 251.432 26.8431C252.8 26.8431 253.769 26.0699 253.769 24.9053C253.769 23.7406 253.197 23.303 251.192 22.9674C248.231 22.5628 246.83 21.6481 246.83 19.2892C246.83 17.2296 248.563 15.68 251.14 15.68C253.805 15.68 255.397 16.9138 255.637 19.3254H253.528C253.304 18.006 252.56 17.4402 251.14 17.4402C249.736 17.4402 249.011 18.1278 249.011 19.0951C249.011 20.115 249.427 20.6249 251.572 20.9441C254.477 21.3487 255.985 22.1943 255.985 24.7111C255.985 26.8924 254.169 28.6 251.435 28.6C248.056 28.6066 246.635 26.899 246.463 24.5203Z" fill="black"/>
<path opacity="0.99" d="M173.007 85.7835V98.2982C173.007 98.487 172.855 98.64 172.668 98.64H139.34C139.152 98.64 139 98.487 139 98.2982V38.4618C139 38.273 139.152 38.12 139.34 38.12H153.922C154.11 38.12 154.262 38.273 154.262 38.4618V85.4417H172.668C172.855 85.4417 173.007 85.5947 173.007 85.7835Z" fill="black"/>
<path opacity="0.99" fill-rule="evenodd" clip-rule="evenodd" d="M226.059 98.5291V53.8741C226.059 53.6858 225.91 53.5332 225.72 53.5299H212.003C211.815 53.5299 211.663 53.6825 211.663 53.8709V60.0205C209.499 55.8807 203.666 52.4 197.833 52.4C184.759 52.4 175.728 62.6538 175.728 76.2C175.728 89.7462 184.759 100 197.833 100C203.666 100 209.499 96.6134 211.663 92.4736V98.5291C211.663 98.7175 211.815 98.8701 212.003 98.8701H225.72C225.907 98.8701 226.059 98.7175 226.059 98.5291ZM200.85 64.6312C207.339 64.6312 211.667 69.9951 211.667 76.2032C211.667 82.5055 207.339 87.7721 200.85 87.7721C194.361 87.7721 190.033 82.5055 190.033 76.2032C190.033 69.9919 194.361 64.6312 200.85 64.6312Z" fill="black"/>
<path opacity="0.99" fill-rule="evenodd" clip-rule="evenodd" d="M230.483 98.8637H244.359C244.549 98.8637 244.699 98.707 244.703 98.5209V92.4315C246.892 96.5945 252.793 100 258.788 100C272.015 100 281.151 89.6888 281.151 76.0668C281.151 62.4448 272.015 52.1336 258.788 52.1336C252.793 52.1336 246.892 55.6338 244.703 59.7968V35.7428C244.703 35.5535 244.549 35.4 244.359 35.4H230.483C230.293 35.4 230.14 35.5535 230.14 35.7428V98.5209C230.14 98.7103 230.293 98.8637 230.483 98.8637ZM255.74 64.43C262.209 64.43 266.588 69.8239 266.588 76.0668C266.588 82.4044 262.209 87.7004 255.74 87.7004C249.078 87.7004 244.699 82.4044 244.699 76.0668C244.699 69.8207 249.078 64.43 255.74 64.43Z" fill="black"/>
<path opacity="0.99" d="M324 85.4787C324 96.1611 314.759 100 303.443 100C290.67 100 282.689 94.2303 282.511 84.046C282.508 83.8552 282.663 83.6967 282.854 83.6967H296.323C296.508 83.6967 296.654 83.8487 296.66 84.0331C296.799 88.5641 299.775 90.3493 303.916 90.3493C307.403 90.3493 309.857 89.1301 309.857 86.132C309.857 82.665 306.273 82.1961 297.693 79.3856C290.149 77.0441 283.644 74.8869 283.644 66.1742C283.644 56.8049 291.47 52.4 303.728 52.4C316.751 52.4 323.168 58.8715 323.339 67.3223C323.343 67.5131 323.187 67.6716 322.996 67.6716H309.433C309.249 67.6716 309.106 67.5228 309.1 67.3385C308.983 63.7971 307.005 61.7693 303.165 61.7693C300.241 61.7693 297.79 63.0823 297.79 65.799C297.79 69.0784 301.75 69.6412 309.391 72.1703C317.398 74.515 324 76.6689 324 85.4787Z" fill="black"/>
</svg>
